<?xml version="1.0" encoding="UTF-8"?>
<svg xmlns="http://www.w3.org/2000/svg" viewBox="0 0 64 64" role="img" aria-label="Agent CMS Commander dial ticks">
  <defs>
    <linearGradient id="cmd-bg-05d" x1="0%" y1="0%" x2="100%" y2="100%">
      <stop offset="0%" stop-color="#881337" />
      <stop offset="100%" stop-color="#e11d48" />
    </linearGradient>
  </defs>
  <rect width="64" height="64" rx="14" fill="url(#cmd-bg-05d)" />
  <g stroke="#ffffff" stroke-linecap="round" opacity="0.55">
    <line x1="32" y1="10" x2="32" y2="13" stroke-width="2" />
    <line x1="42.5" y1="12.8" x2="41.2" y2="15.5" stroke-width="1.5" />
    <line x1="50.2" y1="20.5" x2="47.5" y2="21.8" stroke-width="1.5" />
    <line x1="53" y1="32" x2="50" y2="32" stroke-width="2" />
    <line x1="50.2" y1="43.5" x2="47.5" y2="42.2" stroke-width="1.5" />
    <line x1="42.5" y1="51.2" x2="41.2" y2="48.5" stroke-width="1.5" />
    <line x1="32" y1="54" x2="32" y2="51" stroke-width="2" />
    <line x1="21.5" y1="51.2" x2="22.8" y2="48.5" stroke-width="1.5" />
    <line x1="13.8" y1="43.5" x2="16.5" y2="42.2" stroke-width="1.5" />
    <line x1="11" y1="32" x2="14" y2="32" stroke-width="2" />
    <line x1="13.8" y1="20.5" x2="16.5" y2="21.8" stroke-width="1.5" />
    <line x1="21.5" y1="12.8" x2="22.8" y2="15.5" stroke-width="1.5" />
  </g>
  <circle cx="32" cy="32" r="17" fill="none" stroke="#ffffff" stroke-width="2" opacity="0.3" />
  <path d="M 32 15 A 17 17 0 0 1 49 32" fill="none" stroke="#ffffff" stroke-width="3" stroke-linecap="round" />
  <ellipse cx="32" cy="32" rx="9" ry="11" fill="#ffffff" />
  <path d="M 32 21 L 32 27" stroke="#881337" stroke-width="2" stroke-linecap="round" opacity="0.45" />
</svg>
